Patient4_TMGait_0pt5_01_right_28_EMG.mot
version=1
nRows=27
nColumns=33
inDegrees=no
endheader
time	1LAddLong	2LGlutMax	3LGlutMed	4LIliopsoas	5LSemiMemb	6LBicFemLong	7LRecFem	8LVastMed	9LVastLat	10LGasMed	11LTibAnt	12lTibPost	13LPeroneusLong	14LSol	15LExtDigLong	16LFlexDigLong	17RAddLong	18RGlutMax	19RGlutMed	20RIliopsoas	21RSemiMemb	22RBicFemLong	23RRecFem	24RVastMed	25RVastLat	26RGasMed	27RTibAnt	28RTibPost	29RPeroneusLong	30RSol	31RExtDigLong	32RFlexDigLong
37.21	-0.026855	-0.18112	0.069733	0.017242	0.011902	-0.007019	0.17334	0.003967	0.12146	-0.031433	-0.012665	0.006866	-0.12695	0.04715	0.005951	-0.008698	-0.053101	-0.47455	-0.44846	-0.023804	-0.20752	0.47455	0.092468	-0.037842	-0.13901	0.010071	0.009308	0.003357	-0.097961	-0.20813	-0.002747	-0.000153
37.211	-0.024567	-0.15976	0.035248	0.00824	0.013733	-0.010223	0.15518	-0.003052	0.13229	-0.018005	-0.011902	0.008087	-0.12894	0.081787	0.002136	-0.017853	-0.034332	-0.53268	-0.00412	0.029755	-0.30151	0.52826	-0.023651	-0.16998	-0.10544	0.019073	-0.044098	-0.005646	-0.29984	-0.16769	0.004578	0
37.212	-0.027313	-0.15579	-0.009308	0.019226	0.02121	-0.006256	0.16022	-0.001373	0.15869	-0.013123	-0.001678	0.015411	-0.13992	0.077667	0.001068	-0.013733	-0.03418	-0.47302	0.49637	0.11063	-0.10819	0.25162	0.068665	-0.040894	0.13901	0.01358	-0.077362	-0.013275	-0.041962	-0.15945	-0.00061	0.011749
37.213	-0.015411	-0.17395	-0.040894	0.015411	0.030823	0.005493	0.18616	-0.005493	0.16968	0.06546	-0.00351	0.012512	-0.12863	0.059662	0.028839	-0.012054	-0.053406	-0.43396	0.22797	0.14603	0.34607	0.10513	0.087738	0.1503	0.3125	0.008698	-0.050964	-0.012207	1.0034	-0.20111	-0.000458	0.007935
37.214	-0.013885	-0.13382	-0.088806	0.010071	0.022736	-0.00885	0.22278	-0.010071	0.17838	0.13519	-0.027161	0.001373	-0.12421	0.050201	0.13397	-0.007477	-0.007019	-0.28076	0.27496	0.06897	0.34576	-0.14893	0.11536	0.028381	0.22171	0.00351	0.090332	-0.009003	0.89142	-0.14999	0	0.003662
37.215	-0.010376	-0.112	-0.10269	0.008087	0.019226	-0.013123	0.22629	-0.002441	0.15808	0.14465	-0.03952	0.008545	-0.11292	0.033264	0.13321	0.008087	0.024567	-0.1741	0.34637	0.037842	0.085602	-0.30899	0.1886	-0.027618	0.10651	-0.000458	0.17395	-0.008698	0.23331	-0.10559	0.010071	0.009308
37.216	-0.013123	-0.092621	-0.12787	0.005035	0.014343	-0.020905	0.23056	-0.002594	0.16953	0.025024	-0.033417	0.001221	-0.092926	0.021515	0.065002	0.011749	0.00473	0.008087	0.46585	0.024719	0.02533	-0.45425	0.24185	0.01358	0.05127	0.003967	0.08728	-0.015259	-0.49881	-0.10788	-0.001221	0.009918
37.217	-0.00824	-0.08667	-0.13062	0.000763	0.007782	-0.015869	0.24033	-0.00412	0.17914	-0.029602	-0.020752	0.020752	-0.080872	-0.000916	-0.023499	0.014191	-0.026245	0.009918	0.13626	0.019836	0.12955	-0.61478	0.13916	0.21469	0.17548	0.009918	-0.11246	-0.011444	-1.2712	-0.14801	-0.001526	0.014343
37.218	-0.002136	-0.085907	-0.14084	-0.006409	0.005035	-0.015259	0.34088	-0.007782	0.19104	0.056915	0.019379	0.003815	-0.085907	0.017548	-0.028687	0.01358	-0.055695	0.039673	0.71686	-0.018463	-0.081635	-0.34119	0.12665	0.19852	0.19806	0.005646	-0.084534	-0.011139	-0.52872	-0.037689	-0.003815	0.02121
37.219	0.003815	-0.099487	-0.17425	-0.003204	0.009003	-0.004272	0.40131	-0.011139	0.17654	0.14252	0.084839	0.005951	-0.15869	0.068512	-0.007629	0.015106	-0.014191	-0.040131	0.022888	-0.055695	-0.1088	-0.050507	0.21378	0.31525	0.1442	-0.001678	-0.023346	-0.012665	0.6163	0.036774	0.00351	0.01236
37.22	-0.014191	-0.074615	-0.19394	0.010834	0.006256	0.001831	0.42526	-0.010681	0.15579	0.14099	0.096588	0.005798	-0.2063	0.077362	-0.085907	0.019989	0.02182	-0.11215	-0.24384	-0.15015	-0.068359	0.005188	0.25528	0.14023	0.14343	0.000305	0.14618	-0.010376	-0.04837	0.055542	-0.002289	0.01236
37.221	-0.004272	-0.057373	-0.18677	0.010529	0.012665	0.00824	0.43381	0	0.16266	-0.029602	0.052032	-0.002441	-0.18066	0.1178	-0.15961	0.019531	0.024872	-0.20203	-0.61462	-0.11261	0.04364	-0.038147	0.24979	0.069122	0.20828	0.000458	0.14969	-0.010071	0.017853	-0.002594	0.00061	0.014038
37.222	-0.00473	-0.065613	-0.17273	0.009613	0.00824	0.018158	0.39383	-0.001678	0.18234	-0.20584	-0.055695	-0.005188	-0.094604	0.091095	-0.079498	0.030365	0.019073	-0.24002	-0.75226	-0.050964	-0.041809	0.015717	0.11169	0.10788	0.28854	0.007477	0.041809	-0.009155	2.3878	-0.12772	0.002136	0.004272
37.223	-0.002899	-0.064697	-0.17944	-0.006256	0.010376	0.030365	0.30182	-0.001373	0.17227	-0.34515	-0.10773	-0.00473	-0.087738	0.060883	0.054626	0.032043	0.022583	-0.16983	-0.081787	-0.036163	-0.006561	-0.13229	0.10223	-0.023193	-0.21484	0.014954	0.05127	-0.002136	1.0948	-0.12543	-0.005951	0.00351
37.224	-0.008087	-0.026703	-0.18463	-0.010376	0.011292	0.019379	0.28275	-0.004272	0.15518	-0.24918	-0.045319	0.006866	-0.061951	0.068665	0.10254	0.033264	0.075226	-0.040894	0.46173	0.059204	0.046997	-0.24811	0.043182	-0.27741	-0.43671	0.014801	0.19363	-0.002899	-1.4034	-0.07782	-0.001526	0.005035
37.225	-0.000916	-0.028992	-0.17792	-0.014648	0.001221	0.027924	0.36865	0.000916	0.15701	-0.14893	-0.048828	-0.000305	-0.052185	0.072784	-0.01709	0.023956	0.080261	-0.087891	0.34561	0.18326	-0.16892	-0.21469	-0.051117	-0.31784	-0.2095	-0.010834	-0.049286	-0.003204	-1.338	-0.097351	-0.000763	0.016632
37.226	0	-0.04303	-0.17502	0.02121	0.006714	0.026703	0.38666	0.007935	0.15488	-0.099335	-0.03067	-0.014648	-0.06958	0.070801	-0.1976	0.026245	0.029297	-0.037537	0.46967	0.13184	-0.17029	-0.12405	-0.093231	-0.298	-0.081635	-0.039063	-0.11261	-0.001373	-0.14648	-0.10956	-0.000305	0.011139
37.227	0.007324	-0.033875	-0.17197	0.021667	0.010223	0.049286	0.26489	0.011902	0.15656	-0.097351	-0.046539	-0.007477	-0.080261	0.083923	-0.16602	0.029449	-0.001068	-0.18021	0.40558	0.11169	-0.25925	0.039063	-0.12116	-0.16815	-0.023041	-0.02594	-0.14618	-0.00412	0.76431	-0.094604	-0.001831	0.010376
37.228	0.009613	-0.014496	-0.1831	0.014496	0.006256	0.05188	0.087433	0.007172	0.15625	-0.078278	-0.11765	-0.000153	-0.093689	0.083771	-0.097351	0.024719	0.009155	-0.34927	0.44098	0.018921	-0.26504	0.032196	-0.12924	-0.072784	0.087738	-0.017242	-0.037842	-0.003662	1.0616	0.055084	-0.004578	0.003662
37.229	0.014191	-0.006256	-0.16892	0.007477	-0.000305	0.049286	0.062866	0.01236	0.17258	-0.053101	-0.10071	-0.018921	-0.072784	0.072327	-0.088196	0.016022	-0.016785	-0.42465	0.51651	-0.012817	-0.074768	-0.15823	-0.14862	0.17166	0.09552	-0.03006	0.015411	-0.004578	0.23178	0.10452	0.001221	-0.001678
37.23	0.015106	0.048218	-0.16235	0.011749	0.004883	0.04715	0.010529	0.00351	0.19073	-0.049744	0.018158	-0.00824	-0.072327	0.081177	-0.004883	0.037079	-0.048218	-0.31723	0.49591	-0.061188	0.18051	-0.11276	0.093689	0.30014	0.034485	-0.051422	0.008698	-0.003052	0.041656	-0.030975	-0.000458	-0.00824
37.231	0.011444	0.027924	-0.15015	0.012817	0.008545	0.052795	0.021057	0.012665	0.19043	-0.052948	0.1384	0.001221	-0.091858	0.068512	0.10437	0.018005	-0.033569	-0.46631	-0.37399	-0.047607	-0.006714	-0.11292	0.17777	0.32913	0.050507	-0.051422	0.020752	-0.001526	-0.77072	-0.013733	0.000458	0.003967
37.232	0.005951	-0.029144	-0.15213	0.0177	0.001373	0.046082	-0.016785	0.015106	0.18524	-0.062103	0.13214	-0.034027	-0.09201	0.042267	0.15045	0.019989	-0.014343	-0.57342	-0.9964	-0.005798	0.011902	0.10361	0.1355	0.21088	0.009155	-0.027161	0.063934	-0.002747	-2.4234	0.080566	-0.003204	0.003967
37.233	0.01297	-0.050049	-0.13992	0.021667	-0.003052	0.033112	-0.10925	0.015869	0.18341	-0.054169	0.23422	-0.029907	-0.12497	0.048981	0.50751	0.023346	0.008392	-0.63965	-0.80658	0.012054	0.015869	0.13779	0.18936	0.10422	-0.00824	-0.032959	-0.015717	-0.00824	0.008392	0.095215	0.000305	-0.005035
37.234	0.003967	-0.080109	-0.13443	0.016632	0.002136	0.030212	-0.12192	0.012665	0.15945	-0.10529	0.31357	-0.005035	-0.095978	0.079651	0.10666	0.020447	-0.002136	-0.5928	-0.67108	-0.019531	-0.034485	-0.14954	0.12268	0.093231	0.018616	0.014191	-0.03952	-0.00473	0.60577	0.08728	0.001221	-0.014648
37.235	0.001373	-0.088043	-0.16159	0.011444	0.002747	0.036469	-0.080872	0.002899	0.17929	-0.095825	0.17899	-0.013885	-0.058899	0.10834	-0.072937	0.02182	-0.019531	-0.41885	-0.43533	-0.080261	-0.029449	-0.14938	-0.16693	0.12116	0.027618	-0.027771	0.066376	-0.01297	0.61874	0.15091	-0.002136	-0.012054
37.236	-0.006561	-0.12421	-0.18051	-0.002289	0.002289	0.019989	0.007172	0.003204	0.18158	-0.033722	0.01297	-0.028687	-0.068054	0.075531	-0.18188	0.026855	-0.019836	-0.60272	-0.28153	-0.060272	0.012054	-0.18448	-0.30914	0.083466	0.014343	0.010071	0.1265	-0.011139	0.11673	0.14755	-0.005341	-0.015259
